<svg xmlns="http://www.w3.org/2000/svg" viewBox="0 0 256 256" role="img" aria-label="Go Kifu Viewer logo">
  <defs>
    <linearGradient id="bg" x1="0" y1="0" x2="1" y2="1">
      <stop offset="0%" stop-color="#f8e7c2"/>
      <stop offset="100%" stop-color="#e6c88f"/>
    </linearGradient>
    <radialGradient id="stoneBlack" cx="35%" cy="30%" r="70%">
      <stop offset="0%" stop-color="#6a6e80"/>
      <stop offset="100%" stop-color="#171a28"/>
    </radialGradient>
    <radialGradient id="stoneWhite" cx="35%" cy="30%" r="70%">
      <stop offset="0%" stop-color="#ffffff"/>
      <stop offset="100%" stop-color="#e6e9f0"/>
    </radialGradient>
    <filter id="shadow" x="-20%" y="-20%" width="140%" height="140%">
      <feDropShadow dx="0" dy="2" stdDeviation="2" flood-color="#000000" flood-opacity="0.28"/>
    </filter>
  </defs>

  <rect x="16" y="16" width="224" height="224" rx="36" fill="url(#bg)"/>
  <rect x="42" y="42" width="172" height="172" rx="20" fill="#ddb772" stroke="#7f5b2e" stroke-width="4"/>

  <g stroke="#4f3720" stroke-width="2" opacity="0.9">
    <line x1="62" y1="62" x2="62" y2="194"/>
    <line x1="84" y1="62" x2="84" y2="194"/>
    <line x1="106" y1="62" x2="106" y2="194"/>
    <line x1="128" y1="62" x2="128" y2="194"/>
    <line x1="150" y1="62" x2="150" y2="194"/>
    <line x1="172" y1="62" x2="172" y2="194"/>
    <line x1="194" y1="62" x2="194" y2="194"/>

    <line x1="62" y1="62" x2="194" y2="62"/>
    <line x1="62" y1="84" x2="194" y2="84"/>
    <line x1="62" y1="106" x2="194" y2="106"/>
    <line x1="62" y1="128" x2="194" y2="128"/>
    <line x1="62" y1="150" x2="194" y2="150"/>
    <line x1="62" y1="172" x2="194" y2="172"/>
    <line x1="62" y1="194" x2="194" y2="194"/>
  </g>

  <g fill="#4a3320">
    <circle cx="84" cy="84" r="3.4"/>
    <circle cx="128" cy="128" r="3.4"/>
    <circle cx="172" cy="172" r="3.4"/>
  </g>

  <g filter="url(#shadow)">
    <circle cx="106" cy="106" r="14" fill="url(#stoneBlack)"/>
    <circle cx="150" cy="150" r="14" fill="url(#stoneWhite)" stroke="#b9bec9" stroke-width="1.5"/>
  </g>

</svg>
